{"title":"Dark Skies 2013 Webrip Xvid AC3 - TODE","uid":8336304,"size":687558009,"categoryP":"video","categoryS":"movies","magnet":"?xt=urn:btih:b6522fa7449cfd41c62658c7bc50788b0e4194df&amp;dn=Dark+Skies+2013+Webrip+Xvid+AC3+-+TODE&amp;tr=udp%3A%2F%2Ftracker.openbittorrent.com%3A80&amp;tr=udp%3A%2F%2Fopen.demonii.com%3A1337&amp;tr=udp%3A%2F%2Ftracker.coppersurfer.tk%3A6969&amp;tr=udp%3A%2F%2Fexodus.desync.com%3A6969","seeders":0,"leechers":1,"uploader":"Gh0stNet","files":3,"time":1364994181,"description":"\tPlot: As the Barret family's peaceful suburban life is rocked by an escalating series of disturbing events, they come to learn that a terrifying and deadly force is after them.\n\n\n\nDirector:\nScott Stewart\n\nWriter:\nScott Stewart\n\nStars:\nKeri Russell, Jake Brennan, Josh Hamilton\n\nGenres:\nHorror |  Sci-Fi |  Thriller\n\nCountry:\nUSA\n\nLanguage:\nEnglish\n\n\nThanks : TommieCook\n\n\n\n\nFormat                                   : AVI\nFormat/Info                              : Audio Video Interleave\nFile size                                : 647 MiB\nDuration                                 : 1h 33mn\nOverall bit rate                         : 972 Kbps\nWriting application                      : Lavf54.59.103\n\nVideo\nID                                       : 0\nFormat                                   : MPEG-4 Visual\nFormat profile                           : Simple@L3\nFormat settings, BVOP                    : No\nFormat settings, QPel                    : No\nFormat settings, GMC                     : No warppoints\nFormat settings, Matrix                  : Default (H.263)\nCodec ID                                 : XVID\nCodec ID/Hint                            : XviD\nDuration                                 : 1h 33mn\nBit rate                                 : 833 Kbps\nWidth                                    : 640 pixels\nHeight                                   : 272 pixels\nDisplay aspect ratio                     : 2.35:1\nFrame rate                               : 25.000 fps\nColor space                              : YUV\nChroma subsampling                       : 4:2:0\nBit depth                                : 8 bits\nScan type                                : Progressive\nCompression mode                         : Lossy\nBits/(Pixel*Frame)                       : 0.191\nStream size                              : 554 MiB (86%)\nWriting library                          : XviD 64\n\nAudio\nID                                       : 1\nFormat                                   : AC-3\nFormat/Info                              : Audio Coding 3\nMode extension                           : CM (complete main)\nFormat settings, Endianness              : Big\nCodec ID                                 : 2000\nDuration                                 : 1h 33mn\nBit rate mode                            : Constant\nBit rate                                 : 128 Kbps\nChannel(s)                               : 2 channels\nChannel positions                        : Front: L R\nSampling rate                            : 48.0 KHz\nBit depth                                : 16 bits\nCompression mode                         : Lossy\nStream size                              : 85.2 MiB (13%)\nAlignment                                : Aligned on interleaves\nInterleave, duration                     : 32 ms (0.80 video frame)\n\nScreens: &lt;a href=&quot;\nhttp://i.imgur.com/My0lG3M.png&quot; rel=&quot;nofollow&quot; target=&quot;_NEW&quot;&gt;\nhttp://i.imgur.com/My0lG3M.png&lt;/a&gt; &lt;a href=&quot;\nhttp://i.imgur.com/lGVusyV.png&quot; rel=&quot;nofollow&quot; target=&quot;_NEW&quot;&gt;\nhttp://i.imgur.com/lGVusyV.png&lt;/a&gt; &lt;a href=&quot;\nhttp://i.imgur.com/RmDKUtV.png&quot; rel=&quot;nofollow&quot; target=&quot;_NEW&quot;&gt;\nhttp://i.imgur.com/RmDKUtV.png&lt;/a&gt; &lt;a href=&quot;\nhttp://i.imgur.com/RLMfjGP.png&quot; rel=&quot;nofollow&quot; target=&quot;_NEW&quot;&gt;\nhttp://i.imgur.com/RLMfjGP.png&lt;/a&gt; &lt;a href=&quot;\nhttp://i.imgur.com/KOUSK36.png&quot; rel=&quot;nofollow&quot; target=&quot;_NEW&quot;&gt;\nhttp://i.imgur.com/KOUSK36.png&lt;/a&gt;","torrent":{"xt":"urn:btih:b6522fa7449cfd41c62658c7bc50788b0e4194df","amp;dn":"Dark+Skies+2013+Webrip+Xvid+AC3+-+TODE","amp;tr":["udp%3A%2F%2Ftracker.openbittorrent.com%3A80","udp%3A%2F%2Fopen.demonii.com%3A1337","udp%3A%2F%2Ftracker.coppersurfer.tk%3A6969","udp%3A%2F%2Fexodus.desync.com%3A6969"],"infoHash":"b6522fa7449cfd41c62658c7bc50788b0e4194df","infoHashBuffer":{"type":"Buffer","data":[182,82,47,167,68,156,253,65,198,38,88,199,188,80,120,139,14,65,148,223]},"announce":[],"urlList":[]}}